<?xml version="1.0" standalone="no"?>
<!DOCTYPE svg PUBLIC "-//W3C//DTD SVG 20010904//EN"
 "http://www.w3.org/TR/2001/REC-SVG-20010904/DTD/svg10.dtd">
<svg version="1.0" xmlns="http://www.w3.org/2000/svg"
 width="598.000000pt" height="653.000000pt" viewBox="0 0 598.000000 653.000000"
 preserveAspectRatio="xMidYMid meet">

<g transform="translate(0.000000,653.000000) scale(0.100000,-0.100000)"
fill="#000000" stroke="none">
<path d="M5299 5617 c-57 -35 -140 -87 -183 -116 -87 -59 -205 -116 -451 -221
-293 -123 -513 -190 -850 -257 -149 -29 -217 -32 -570 -22 -145 4 -167 2 -232
-19 -41 -12 -104 -44 -148 -73 -170 -114 -265 -293 -266 -501 0 -134 21 -195
111 -312 27 -36 50 -70 50 -76 0 -13 -41 -13 -77 1 -58 21 -103 63 -168 156
-157 221 -282 291 -445 249 -35 -9 -85 -28 -110 -43 -128 -74 -148 -82 -237
-98 -51 -8 -100 -18 -108 -21 -41 -16 5 -73 130 -161 133 -93 496 -324 601
-383 197 -109 471 -180 697 -180 200 0 297 25 499 127 164 83 318 186 547 368
490 389 777 568 1053 660 122 40 211 54 351 55 124 0 126 17 6 43 -62 14 -128
19 -254 19 -256 1 -337 -21 -648 -179 -152 -78 -185 -85 -167 -38 27 71 92
142 183 200 76 48 74 66 -10 120 -47 30 -62 45 -60 60 1 15 46 42 182 110 262
131 392 221 535 371 68 71 170 202 170 218 0 16 -36 1 -131 -57z m-875 -533
c33 -13 10 -114 -25 -114 -10 0 -23 9 -30 21 -9 18 -17 20 -47 14 -50 -9 -147
-53 -168 -76 -42 -47 23 -70 113 -40 106 36 135 37 171 6 44 -37 38 -68 -33
-155 -69 -85 -171 -180 -191 -180 -10 0 -13 -6 -9 -19 7 -22 -18 -46 -39 -38
-18 7 -51 112 -40 128 4 7 21 9 44 5 35 -5 40 -3 102 62 61 63 88 106 74 119
-3 4 -41 -4 -85 -15 -94 -26 -113 -27 -156 -6 -64 30 -70 116 -12 172 40 38
149 89 218 102 29 6 55 12 57 15 7 7 37 6 56 -1z m-417 -140 c3 -8 -4 -25 -16
-38 -11 -12 -21 -32 -21 -43 0 -22 91 -294 117 -350 11 -24 22 -33 39 -33 12
0 26 -5 30 -11 9 -15 -49 -93 -72 -98 -25 -4 -34 -19 -34 -56 0 -37 -40 -124
-68 -148 -27 -25 -87 -24 -121 0 -57 42 -133 220 -240 562 -11 34 -27 62 -44
75 -33 24 -40 18 -26 -23 23 -66 -24 -87 -57 -25 -24 45 -66 70 -84 49 -21
-25 -15 -118 12 -177 25 -53 56 -85 178 -181 108 -85 165 -194 177 -339 7 -84
-13 -144 -63 -188 -38 -33 -62 -37 -102 -16 -53 27 -152 165 -152 211 0 16 25
26 45 19 8 -3 24 -26 35 -50 12 -24 33 -53 47 -64 33 -26 79 -26 93 -1 16 32
12 116 -10 174 -30 79 -65 121 -160 185 -77 52 -88 65 -118 125 -45 89 -67
215 -53 294 17 94 64 115 154 69 40 -20 49 -21 59 -9 8 10 28 13 67 11 l56 -3
7 -60 c3 -33 12 -73 18 -90 17 -40 97 -265 121 -339 23 -71 51 -111 90 -131
26 -14 30 -14 48 4 25 25 51 111 51 168 0 26 -25 118 -64 235 -50 149 -71 198
-90 213 -37 30 -34 55 7 55 17 0 48 8 67 19 44 23 69 25 77 5z m-736 -113 c24
-25 29 -37 29 -80 0 -60 -17 -67 -52 -21 -22 31 -40 35 -98 24 -31 -7 -32 -8
-27 -48 3 -23 11 -68 17 -101 6 -33 19 -97 27 -142 9 -46 21 -83 27 -83 6 0
31 6 56 14 42 12 45 16 50 52 4 31 9 39 25 39 11 0 20 -4 20 -10 0 -5 11 -54
25 -107 20 -79 22 -100 12 -110 -11 -11 -18 -7 -40 20 -26 32 -28 32 -75 23
-27 -5 -52 -13 -57 -17 -12 -14 45 -355 61 -365 19 -12 37 -11 93 6 64 19 76
31 76 71 0 18 5 36 11 39 16 10 54 -30 85 -90 24 -45 26 -55 15 -69 -8 -9 -22
-14 -31 -11 -10 3 -33 -4 -52 -17 -63 -43 -148 -72 -261 -90 -69 -10 -79 -10
-94 4 -15 15 -14 19 11 48 34 40 34 79 2 270 -40 235 -67 408 -81 515 -11 86
-17 102 -39 122 -32 27 -33 58 -3 78 29 19 172 62 210 64 19 1 38 -9 58 -28z
m-355 -95 c19 -14 19 -15 0 -50 -21 -40 -18 -110 14 -256 10 -47 21 -110 25
-140 4 -30 16 -98 26 -150 29 -136 37 -405 15 -448 -36 -70 -111 -84 -171 -31
-58 51 -39 114 22 74 26 -17 27 -17 46 6 18 22 19 35 14 159 -3 74 -13 173
-22 220 -9 47 -20 121 -25 165 -25 214 -51 315 -80 315 -11 0 -22 10 -26 22
-6 19 3 32 51 75 61 56 79 62 111 39z"/>
<path d="M790 5593 c-51 -5 -54 -8 -75 -80 -8 -29 -18 -59 -21 -67 -5 -13 12
-14 130 -9 324 15 667 -49 957 -177 111 -49 259 -134 259 -149 0 -5 -6 -14
-14 -20 -10 -9 -43 5 -147 58 -201 105 -340 155 -536 196 -182 38 -468 55
-623 37 l-55 -7 -42 -129 c-24 -71 -41 -131 -39 -134 2 -2 58 4 123 14 162 25
400 25 513 1 121 -26 247 -70 379 -133 103 -49 112 -56 100 -71 -7 -10 -14
-19 -15 -21 -1 -2 -51 19 -110 46 -138 63 -295 116 -410 138 -68 13 -119 15
-219 11 -161 -8 -366 -34 -382 -50 -12 -13 -65 -189 -58 -196 2 -2 42 6 87 17
151 37 275 47 401 33 137 -15 208 -33 298 -73 69 -30 77 -40 60 -67 -8 -12
-19 -10 -68 12 -150 67 -365 96 -530 72 -118 -18 -259 -54 -273 -70 -5 -6 -15
-44 -21 -83 -15 -89 -7 -104 44 -83 86 35 135 43 277 44 236 1 393 -43 566
-158 118 -79 171 -93 289 -76 64 9 101 22 186 65 128 66 201 86 305 86 70 0
85 -4 132 -31 29 -16 95 -70 147 -119 52 -50 99 -90 106 -90 8 0 10 13 5 43
-19 124 -19 145 4 218 46 152 152 330 220 368 51 28 64 51 45 78 -29 42 -297
191 -460 257 -88 35 -212 85 -275 110 -162 66 -440 136 -684 172 -100 14 -489
26 -576 17z"/>
<path d="M5295 5398 c-160 -172 -309 -283 -499 -372 -62 -30 -116 -59 -120
-65 -11 -17 78 -14 149 4 130 34 286 129 409 249 56 54 83 90 110 146 35 73
44 110 27 110 -5 0 -39 -33 -76 -72z"/>
<path d="M5155 4995 c-153 -33 -418 -161 -474 -229 -18 -21 -13 -20 61 8 35
14 118 41 185 60 67 20 166 55 220 80 106 47 177 66 251 66 43 1 46 2 28 15
-25 19 -185 19 -271 0z"/>
<path d="M5370 4590 c-204 -24 -431 -126 -615 -276 -38 -31 -155 -120 -260
-199 -104 -78 -264 -204 -355 -280 -258 -215 -364 -284 -557 -367 -144 -61
-258 -94 -397 -114 -392 -58 -875 99 -1226 398 -98 84 -553 418 -654 481 -179
111 -446 193 -606 185 l-62 -3 108 -81 c494 -369 930 -824 1237 -1291 427
-650 764 -1438 947 -2216 18 -75 35 -137 39 -137 8 0 1797 863 1818 877 12 8
86 283 78 291 -2 2 -28 -7 -57 -21 -234 -111 -386 -184 -991 -476 -379 -183
-690 -331 -692 -329 -3 2 -34 105 -69 229 -199 695 -496 1339 -884 1918 -76
112 -143 212 -151 223 -10 14 7 7 52 -21 159 -97 315 -162 514 -213 l128 -33
295 0 c290 0 297 0 405 28 217 55 439 159 612 286 45 33 150 118 235 189 85
71 226 182 313 247 87 65 202 153 255 195 179 142 326 221 495 265 53 14 117
25 140 25 82 0 89 7 118 117 15 55 27 103 27 106 0 9 -156 7 -240 -3z"/>
<path d="M344 4323 c3 -10 39 -155 81 -323 85 -342 90 -361 113 -410 l16 -35
16 70 c72 296 68 461 -15 569 -23 30 -190 146 -211 146 -3 0 -3 -8 0 -17z"/>
<path d="M703 4103 c4 -58 7 -123 7 -145 0 -21 4 -38 9 -38 13 0 79 135 87
176 5 27 1 35 -44 72 -27 23 -53 42 -57 42 -5 0 -5 -48 -2 -107z"/>
<path d="M906 4008 c-2 -13 -13 -79 -24 -148 -12 -69 -28 -154 -37 -190 -34
-139 -47 -253 -41 -349 9 -123 21 -178 50 -212 13 -15 27 -48 30 -72 4 -27 13
-48 23 -51 13 -5 15 -17 10 -61 -6 -63 3 -71 22 -20 7 19 24 48 37 65 45 53
66 20 110 -175 10 -45 25 -85 35 -92 9 -7 22 -26 29 -43 12 -29 14 -30 31 -15
19 18 19 36 -3 185 -5 41 -11 89 -12 105 -2 17 -6 42 -10 57 -11 37 1 66 27
70 18 2 23 12 29 53 3 28 7 83 7 123 1 39 5 72 9 72 5 0 19 -22 32 -50 13 -27
26 -47 30 -45 9 6 20 161 21 295 1 95 2 103 15 80 51 -92 102 -292 110 -430 8
-136 -20 -288 -81 -439 -23 -57 -24 -63 -13 -148 11 -84 12 -86 21 -50 5 21
24 80 41 130 26 76 36 93 54 95 41 6 45 32 39 251 -4 113 -11 235 -16 271 -18
123 -51 256 -74 296 -22 38 -186 208 -194 201 -4 -4 5 -58 20 -120 27 -110 35
-201 19 -211 -5 -3 -37 63 -72 147 -84 203 -152 334 -207 396 -50 57 -61 61
-67 29z m252 -843 c-11 -92 -31 -195 -38 -200 -11 -7 -51 138 -51 182 -1 59
33 187 73 278 12 28 13 21 18 -85 3 -63 2 -142 -2 -175z"/>
<path d="M762 3808 c-71 -112 -120 -207 -157 -308 l-27 -75 18 -60 c10 -33 20
-63 24 -68 3 -4 16 24 29 63 12 38 26 72 31 75 6 4 10 -22 10 -64 0 -100 26
-272 57 -369 14 -45 29 -84 33 -87 4 -2 10 19 13 47 5 37 0 74 -15 132 -31
115 -31 400 0 561 22 116 47 219 57 235 3 6 2 10 -3 10 -6 0 -37 -42 -70 -92z"/>
<path d="M1332 3257 c-6 -84 -20 -186 -31 -227 -17 -69 -18 -80 -4 -140 7 -36
17 -82 20 -103 3 -21 9 -35 13 -30 4 4 20 58 36 118 23 94 27 131 28 255 0
113 -4 159 -18 208 -10 34 -22 64 -25 67 -4 2 -12 -65 -19 -148z"/>
<path d="M1545 3353 c20 -53 35 -205 35 -369 0 -152 2 -183 15 -188 17 -6 20
-47 5 -62 -5 -5 -12 -32 -16 -59 -4 -34 -2 -45 4 -36 6 8 21 12 41 9 l31 -5 0
49 c0 59 10 65 77 46 36 -10 49 -19 51 -35 2 -12 12 -25 23 -28 24 -8 24 -28
-2 -84 -19 -44 -24 -84 -49 -426 -8 -120 -5 -171 11 -181 5 -3 9 -14 9 -25 0
-11 14 -41 32 -67 35 -51 127 -152 138 -152 4 0 7 93 7 208 0 250 11 311 90
495 36 85 53 136 49 150 -8 29 -37 65 -42 52 -3 -5 -23 -46 -47 -89 -46 -87
-67 -105 -67 -59 0 29 -51 226 -69 269 -5 12 -17 77 -26 145 -16 112 -21 130
-54 179 l-36 55 -5 -45 -5 -45 -44 80 c-60 109 -142 235 -154 235 -5 0 -6 -8
-2 -17z"/>
<path d="M1247 3143 c-3 -4 -8 -35 -12 -69 -5 -47 -3 -63 8 -72 30 -25 51 94
23 131 -8 10 -16 15 -19 10z"/>
<path d="M826 3078 c-27 -135 -49 -333 -44 -395 2 -26 32 -155 67 -286 100
-383 201 -758 206 -767 3 -5 56 -35 118 -68 61 -33 198 -106 302 -162 105 -56
285 -153 400 -215 116 -62 293 -157 395 -212 459 -247 528 -283 537 -283 15 0
-4 83 -88 400 -20 73 -117 378 -126 392 -2 4 -14 1 -26 -7 -32 -21 -45 -6 -45
48 1 27 -3 52 -9 55 -5 4 -16 18 -23 31 -11 22 -10 27 9 39 41 28 14 102 -38
102 -33 0 -51 -16 -51 -48 0 -13 -4 -21 -10 -17 -6 4 -29 4 -52 0 -30 -5 -51
-19 -82 -50 l-41 -44 2 102 c2 56 12 158 24 227 21 128 39 282 33 289 -2 2
-10 -2 -18 -8 -13 -11 -16 -8 -22 13 -9 35 -33 54 -45 35 -5 -8 -9 -23 -9 -33
0 -11 -8 -28 -17 -39 -13 -14 -17 -33 -16 -70 2 -41 -2 -53 -17 -64 -12 -9
-20 -26 -20 -44 0 -16 -4 -29 -8 -29 -5 0 -27 -16 -50 -36 l-42 -35 26 -51 26
-52 -17 -75 c-10 -42 -22 -80 -26 -85 -5 -6 -9 -19 -9 -30 0 -12 -7 -34 -15
-50 -8 -15 -15 -38 -15 -50 0 -23 -37 -66 -57 -66 -20 0 -26 80 -9 109 9 14
-9 64 -37 103 -19 26 -87 53 -117 46 -20 -4 -32 178 -12 194 15 13 16 38 2 38
-6 0 -8 10 -4 24 3 13 1 27 -4 30 -11 7 -8 181 8 381 12 156 18 191 41 242 24
53 24 57 -1 50 -15 -4 -20 0 -20 13 0 28 -11 51 -21 44 -6 -3 -16 -1 -24 6
-10 9 -16 7 -24 -7 -10 -17 -10 -17 -11 0 0 10 -6 17 -12 15 -8 -3 -15 -31
-19 -69 -3 -35 -6 -59 -7 -52 -3 17 -42 37 -52 26 -4 -4 10 -37 32 -73 43 -71
44 -90 9 -172 l-17 -42 -33 70 c-39 82 -71 170 -71 196 0 10 11 36 25 59 14
22 23 44 19 50 -3 6 2 19 12 30 22 24 10 38 -19 20 -15 -10 -22 -10 -25 -2 -8
24 -30 9 -52 -38 -13 -28 -29 -52 -37 -56 -11 -4 -14 -16 -10 -48 7 -54 32
-156 58 -232 54 -159 49 -174 -41 -126 -53 28 -68 32 -106 26 -52 -7 -50 -14
-32 142 10 87 9 117 -5 200 -9 54 -19 129 -22 166 -9 95 -19 122 -65 183 -49
64 -65 69 -56 17 4 -21 8 -62 10 -90 2 -29 11 -64 20 -77 11 -18 16 -48 16
-104 0 -65 -3 -82 -19 -96 -11 -10 -21 -28 -23 -40 -3 -17 -9 -10 -33 33 -31
57 -55 76 -55 44 -1 -17 -1 -17 -15 1 -12 16 -17 17 -30 6 -9 -7 -15 -20 -13
-29 1 -9 -1 -22 -6 -29 -5 -8 -2 -20 8 -31 23 -25 20 -31 -17 -31 -24 0 -41
-8 -62 -30 -16 -16 -37 -30 -48 -30 -14 0 -17 -5 -12 -22 6 -19 5 -21 -6 -10
-21 19 -25 361 -6 399 8 16 17 45 21 66 6 29 4 37 -8 37 -9 0 -18 10 -20 23
-14 74 -22 101 -33 104 -7 3 -14 -6 -17 -19z m389 -625 c-3 -14 -9 -23 -12
-19 -10 10 -10 50 1 71 10 19 11 19 14 -4 2 -12 1 -34 -3 -48z"/>
<path d="M3179 3068 c-7 -13 -45 -66 -84 -118 -39 -52 -89 -121 -110 -153 -25
-38 -47 -59 -64 -63 -102 -23 -163 -56 -220 -120 -70 -80 -84 -185 -26 -200
49 -12 125 56 232 209 51 71 57 77 90 77 33 0 35 -2 29 -27 -3 -16 -9 -66 -12
-113 -5 -65 -3 -94 9 -122 19 -46 56 -71 91 -62 34 8 104 86 152 169 21 36 41
65 45 65 4 0 12 -7 19 -15 14 -17 43 -19 71 -5 18 10 19 7 19 -49 0 -53 3 -63
25 -77 32 -21 55 -12 106 43 36 39 45 44 60 34 29 -17 77 -13 99 9 24 24 34
61 27 105 -5 29 -2 35 23 45 36 15 65 46 51 54 -6 4 -28 -2 -50 -14 -40 -20
-40 -20 -51 -1 -14 26 -13 38 2 23 28 -28 42 7 21 51 -10 20 -21 27 -42 27
-37 0 -62 -30 -65 -77 -3 -83 -105 -276 -132 -251 -9 10 44 172 99 303 l42
100 65 6 c90 8 140 26 140 50 0 23 -3 23 -55 4 -22 -8 -59 -14 -82 -15 l-42 0
6 36 c5 28 2 40 -11 50 -25 18 -44 7 -67 -38 -14 -28 -25 -38 -37 -34 -106 30
-184 30 -228 1 -27 -17 -32 -56 -10 -74 12 -10 17 -7 28 16 13 27 15 28 93 26
133 -3 130 2 73 -133 -46 -108 -107 -195 -124 -177 -10 10 17 67 32 67 40 0
55 90 18 104 -36 14 -78 -28 -136 -134 -86 -157 -127 -216 -164 -236 -43 -24
-64 -8 -64 50 0 35 34 184 45 194 1 2 30 -10 63 -27 41 -21 63 -27 68 -20 8
14 -40 54 -83 71 -18 7 -33 15 -33 20 0 4 24 67 53 140 61 150 72 195 56 214
-17 21 -47 17 -60 -8z m-52 -140 c-4 -7 -22 -51 -41 -98 -32 -80 -36 -85 -66
-88 -37 -4 -40 -11 43 111 55 80 78 106 64 75z m-248 -295 c-114 -152 -209
-224 -209 -158 0 55 68 147 135 183 34 18 108 41 114 36 2 -2 -16 -29 -40 -61z
m781 -5 c0 -19 -18 -43 -25 -36 -4 3 -2 16 5 27 12 24 20 27 20 9z"/>
<path d="M4619 3040 c-40 -21 -89 -74 -89 -95 0 -28 13 -45 35 -45 18 0 26 8
35 35 12 37 51 65 90 65 16 0 20 -6 20 -31 0 -24 -13 -44 -65 -96 -82 -82 -83
-97 -12 -126 32 -14 37 -20 37 -48 0 -23 -10 -41 -39 -70 -41 -41 -79 -50
-101 -24 -15 18 -6 33 27 46 21 8 23 12 13 24 -18 21 -37 19 -65 -10 -57 -56
-6 -155 81 -155 77 0 164 104 164 197 0 29 -15 66 -35 86 -14 15 -14 18 4 36
45 45 67 117 51 166 -21 63 -83 81 -151 45z"/>
<path d="M4159 3027 c-71 -47 -100 -133 -63 -185 17 -25 56 -29 74 -7 10 12 7
20 -14 46 -33 39 -33 54 3 90 49 48 91 34 91 -30 0 -53 -40 -130 -102 -196
-53 -57 -58 -60 -113 -65 -49 -4 -61 -9 -79 -33 l-21 -29 28 -24 c32 -27 55
-29 111 -9 36 12 43 12 78 -6 56 -28 115 -23 141 14 16 21 18 30 9 39 -9 9
-17 6 -36 -11 -20 -19 -32 -22 -57 -17 -61 12 -61 22 -4 83 102 106 149 238
111 312 -29 54 -99 67 -157 28z"/>
<path d="M4980 3039 c-62 -25 -100 -85 -100 -158 0 -44 -6 -58 -40 -103 -90
-118 -90 -241 0 -262 61 -15 135 79 129 164 -3 31 3 46 34 83 21 26 46 65 57
89 19 42 26 120 14 153 -5 13 -55 47 -66 44 -2 0 -14 -5 -28 -10z m28 -87 c2
-17 -6 -48 -17 -70 -19 -38 -22 -40 -46 -29 -29 14 -32 44 -10 87 16 30 43 51
60 46 6 -1 11 -16 13 -34z m-88 -297 c-1 -39 -31 -78 -56 -73 -22 4 -21 21 2
85 14 38 17 41 35 30 12 -7 19 -23 19 -42z"/>
<path d="M733 2848 c22 -94 37 -119 37 -66 0 31 -43 148 -54 148 -2 0 5 -37
17 -82z"/>
<path d="M1895 2889 c19 -120 67 -259 90 -259 11 0 35 61 35 88 0 14 -109 200
-122 208 -7 4 -8 -9 -3 -37z"/>
<path d="M4412 2868 c-16 -16 -15 -33 4 -52 22 -23 43 -20 56 9 19 41 -28 75
-60 43z"/>
<path d="M960 2754 l-33 -76 -16 39 -16 38 -5 -105 c-3 -58 -4 -111 -2 -117 7
-22 41 -14 58 12 9 14 26 28 38 31 31 8 47 95 33 187 -6 37 -14 67 -17 67 -4
0 -22 -34 -40 -76z"/>
<path d="M4381 2758 c-13 -34 4 -60 37 -56 24 3 27 7 27 38 0 31 -3 35 -28 38
-21 3 -29 -2 -36 -20z"/>
<path d="M1580 2562 c0 -47 6 -75 25 -112 14 -28 27 -50 29 -50 3 0 12 19 21
43 l16 43 -45 69 -46 69 0 -62z"/>
<path d="M2107 2443 c-14 -32 -33 -83 -41 -113 -19 -63 -41 -317 -32 -355 7
-26 7 -26 36 -8 36 21 40 31 47 115 3 37 9 65 14 62 7 -4 28 34 43 80 4 10 -1
53 -9 95 -9 42 -15 98 -13 125 4 69 -14 68 -45 -1z"/>
<path d="M1431 2412 c-12 -43 -21 -83 -21 -88 0 -5 25 -22 55 -37 50 -24 55
-25 55 -9 0 10 -11 46 -25 80 -14 34 -25 75 -25 91 0 57 -18 40 -39 -37z"/>
<path d="M3243 2390 c-12 -5 -29 -20 -38 -33 -32 -49 27 -107 94 -92 42 9 39
25 -3 18 -47 -7 -76 11 -76 47 0 37 29 54 79 46 34 -6 35 -5 17 9 -22 17 -40
18 -73 5z"/>
<path d="M3557 2393 c-11 -10 -8 -121 3 -128 6 -3 10 3 10 14 0 30 53 29 74
-1 9 -12 19 -19 22 -15 4 4 1 13 -5 21 -10 12 -9 20 4 39 19 29 11 55 -22 68
-28 11 -77 12 -86 2z m93 -28 c18 -21 -4 -45 -42 -45 -30 0 -44 19 -34 45 3 9
18 15 34 15 16 0 35 -7 42 -15z"/>
<path d="M3799 2381 c-20 -16 -21 -21 -10 -34 7 -9 28 -21 47 -27 46 -16 38
-35 -15 -34 -50 1 -54 -13 -7 -21 40 -8 79 9 74 33 -2 9 -21 26 -42 37 -47 24
-47 40 -1 39 36 -1 47 9 19 20 -26 10 -41 7 -65 -13z"/>
<path d="M3915 2390 c-4 -6 5 -10 19 -10 25 0 26 -2 26 -60 0 -33 4 -60 10
-60 6 0 10 27 10 60 0 57 1 60 25 60 14 0 25 5 25 10 0 6 -24 10 -54 10 -30 0
-58 -4 -61 -10z"/>
<path d="M4145 2334 c-35 -66 -40 -98 -7 -58 21 25 73 25 102 -1 15 -14 20
-15 20 -4 0 16 -55 115 -69 123 -5 3 -26 -24 -46 -60z m65 -11 c0 -7 -11 -13
-25 -13 -29 0 -29 0 -13 35 11 25 13 26 25 9 7 -10 13 -24 13 -31z"/>
<path d="M4300 2329 c0 -44 4 -68 10 -64 6 3 10 27 10 52 l0 45 46 -51 c25
-28 50 -49 55 -45 12 7 11 121 -1 129 -6 4 -10 -13 -10 -44 0 -28 -3 -51 -7
-50 -5 0 -24 20 -43 44 -54 67 -60 65 -60 -16z"/>
<path d="M3370 2325 c0 -37 4 -65 10 -65 6 0 10 14 10 30 0 29 2 30 45 30 41
0 45 -2 45 -24 0 -14 5 -28 10 -31 6 -4 10 18 10 59 0 37 -4 66 -10 66 -5 0
-10 -11 -10 -25 0 -23 -4 -25 -45 -25 -41 0 -45 2 -45 25 0 14 -4 25 -10 25
-6 0 -10 -28 -10 -65z"/>
<path d="M3720 2325 c0 -37 4 -65 10 -65 6 0 10 28 10 65 0 37 -4 65 -10 65
-6 0 -10 -28 -10 -65z"/>
<path d="M4060 2325 c0 -37 4 -65 10 -65 6 0 10 28 10 65 0 37 -4 65 -10 65
-6 0 -10 -28 -10 -65z"/>
<path d="M2296 2148 c-3 -13 -7 -45 -10 -73 -2 -27 -9 -74 -15 -103 l-10 -53
60 -80 c32 -45 59 -85 59 -90 0 -15 24 -10 49 12 l24 20 -41 87 c-23 48 -46
116 -53 152 -14 79 -37 150 -50 150 -5 0 -11 -10 -13 -22z"/>
<path d="M3050 2160 c0 -5 11 -10 25 -10 24 0 25 -3 25 -61 0 -37 4 -58 10
-54 6 3 10 31 10 61 0 47 2 54 20 54 11 0 20 5 20 10 0 6 -25 10 -55 10 -30 0
-55 -4 -55 -10z"/>
<path d="M3213 2111 c-36 -66 -43 -99 -14 -63 26 30 84 31 105 0 9 -12 18 -19
22 -16 7 8 -57 131 -71 135 -5 1 -25 -24 -42 -56z m67 -23 c0 -5 -11 -8 -25
-8 -27 0 -31 10 -14 42 11 21 12 21 25 -3 7 -13 13 -27 14 -31z"/>
<path d="M3364 2156 c-3 -7 -4 -38 -2 -67 l3 -54 41 -3 c29 -2 47 3 65 17 22
18 23 21 7 37 -13 13 -14 20 -5 36 10 16 9 22 -7 34 -25 18 -95 19 -102 0z
m91 -26 c0 -23 -69 -20 -73 3 -3 16 2 18 35 15 26 -2 38 -8 38 -18z m8 -47
c13 -13 -16 -33 -49 -33 -27 0 -34 4 -34 20 0 17 7 20 38 20 21 0 42 -3 45 -7z"/>
<path d="M3530 2100 l0 -70 49 0 c28 0 53 5 56 10 4 6 -12 10 -39 10 -39 0
-46 3 -46 20 0 16 7 20 35 20 19 0 35 5 35 10 0 6 -16 10 -35 10 -28 0 -35 4
-35 20 0 17 7 20 40 20 22 0 40 5 40 10 0 6 -22 10 -50 10 l-50 0 0 -70z"/>
<path d="M3680 2099 c0 -44 4 -68 10 -64 6 3 10 13 10 21 0 21 44 17 65 -6 22
-24 31 -20 16 8 -8 15 -7 23 4 32 39 32 -2 80 -67 80 l-38 0 0 -71z m96 36 c9
-23 -15 -45 -47 -45 -26 0 -29 4 -29 30 0 28 3 30 35 30 23 0 38 -6 41 -15z"/>
<path d="M3848 2164 c-12 -11 -10 -122 2 -129 6 -4 10 13 10 44 0 28 3 51 8
51 4 -1 25 -23 46 -50 22 -28 43 -50 48 -50 4 0 8 32 8 71 0 44 -4 68 -10 64
-5 -3 -10 -26 -10 -51 l0 -45 -47 51 c-27 29 -51 48 -55 44z"/>
<path d="M4041 2110 c-18 -33 -31 -66 -28 -73 2 -7 9 -3 16 11 17 31 82 31
103 0 8 -12 17 -17 21 -12 6 11 -60 134 -72 134 -5 0 -23 -27 -40 -60z m57 5
c16 -34 16 -35 -11 -35 -32 0 -38 8 -25 36 14 31 22 30 36 -1z"/>
<path d="M4200 2141 c-34 -33 -31 -61 8 -91 29 -24 61 -26 88 -5 18 13 16 14
-17 8 -50 -7 -79 10 -79 47 0 36 29 54 76 47 38 -6 47 7 12 17 -42 11 -59 6
-88 -23z"/>
<path d="M4357 2159 c-5 -9 -7 -41 -5 -70 l3 -54 43 -3 c25 -2 42 1 42 7 0 6
-16 11 -35 11 l-34 0 -3 63 c-2 39 -6 56 -11 46z"/>
<path d="M4474 2156 c-3 -7 -4 -38 -2 -67 l3 -54 53 -3 c31 -2 52 1 52 7 0 6
-20 11 -45 11 -38 0 -45 3 -45 20 0 16 7 20 34 20 19 0 38 5 41 10 4 6 -10 10
-34 10 -34 0 -41 3 -41 20 0 17 7 20 39 20 22 0 43 5 46 10 4 6 -13 10 -45 10
-34 0 -52 -5 -56 -14z"/>
<path d="M3096 1919 c-59 -46 -2 -131 76 -112 48 12 74 63 50 99 -24 37 -87
43 -126 13z m102 -11 c28 -28 0 -88 -42 -88 -30 0 -66 27 -66 50 0 10 7 26 16
34 18 19 75 21 92 4z"/>
<path d="M3270 1875 c0 -37 4 -65 10 -65 6 0 10 11 10 25 0 22 4 25 35 25 19
0 35 5 35 10 0 6 -16 10 -35 10 -28 0 -35 4 -35 20 0 16 7 20 34 20 19 0 38 5
41 10 4 6 -13 10 -44 10 l-51 0 0 -65z"/>
<path d="M3450 1938 c0 -22 50 -123 61 -123 8 0 21 19 29 43 8 23 17 42 21 42
3 0 14 -20 23 -45 10 -25 23 -45 31 -45 14 0 62 117 51 127 -3 3 -17 -18 -30
-48 -20 -45 -25 -51 -32 -34 -23 63 -34 85 -42 85 -6 0 -18 -22 -28 -50 -10
-27 -21 -50 -24 -50 -4 0 -13 21 -21 47 -8 25 -20 48 -27 51 -6 2 -12 2 -12 0z"/>
<path d="M3716 1919 c-43 -34 -31 -88 25 -108 48 -16 103 12 107 55 6 62 -78
96 -132 53z m102 -11 c28 -28 0 -88 -42 -88 -30 0 -66 27 -66 50 0 10 7 26 16
34 18 19 75 21 92 4z"/>
<path d="M3890 1875 c0 -37 4 -65 10 -65 6 0 10 9 10 20 0 15 7 20 25 20 14 0
29 -8 35 -20 6 -11 18 -20 27 -20 15 0 15 2 -1 19 -15 16 -15 19 -1 31 21 18
19 57 -4 70 -11 5 -38 10 -60 10 l-41 0 0 -65z m98 22 c4 -20 -39 -43 -62 -34
-15 6 -22 47 -11 59 12 11 70 -8 73 -25z"/>
<path d="M4060 1925 c-18 -22 -6 -42 35 -60 21 -8 35 -20 32 -27 -4 -14 -41
-16 -69 -3 -11 4 -18 3 -18 -3 0 -17 58 -32 84 -22 48 18 37 51 -26 78 -40 17
-34 32 13 32 24 0 38 4 34 10 -10 15 -71 12 -85 -5z"/>
<path d="M4200 1876 c0 -37 4 -66 10 -66 6 0 10 11 10 25 0 23 4 25 45 25 41
0 45 -2 45 -25 0 -14 5 -25 10 -25 6 0 10 28 10 65 0 37 -4 65 -10 65 -5 0
-10 -13 -10 -30 0 -29 -2 -30 -45 -30 -41 0 -45 2 -45 24 0 14 -4 28 -10 31
-6 4 -10 -18 -10 -59z"/>
<path d="M4380 1875 c0 -37 4 -65 10 -65 6 0 10 28 10 65 0 37 -4 65 -10 65
-6 0 -10 -28 -10 -65z"/>
<path d="M4450 1875 c0 -37 4 -65 10 -65 6 0 10 9 10 20 0 16 7 20 31 20 40 0
69 16 69 40 0 31 -28 50 -76 50 l-44 0 0 -65z m97 29 c8 -21 -24 -46 -52 -42
-13 2 -21 12 -23 31 -3 25 -1 27 33 27 24 0 38 -5 42 -16z"/>
<path d="M2246 1773 c-7 -48 -8 -123 0 -123 3 0 22 12 42 27 20 15 38 28 40
29 5 3 -62 104 -69 104 -4 0 -9 -17 -13 -37z"/>
<path d="M1920 1683 c0 -12 36 -119 45 -134 11 -17 35 11 35 40 0 14 -8 35
-18 46 -27 32 -62 59 -62 48z"/>
</g>
</svg>
